<svg xmlns="http://www.w3.org/2000/svg" viewBox="0 0 64 64">
  <defs>
    <linearGradient id="grad" x1="0%" y1="0%" x2="100%" y2="100%">
      <stop offset="0%" style="stop-color:#6366f1;stop-opacity:1" />
      <stop offset="100%" style="stop-color:#8b5cf6;stop-opacity:1" />
    </linearGradient>
  </defs>

  <!-- Large chip body -->
  <rect x="14" y="14" width="36" height="36" rx="4" fill="url(#grad)"/>

  <!-- Big chip pins (left) -->
  <rect x="6" y="22" width="8" height="6" fill="url(#grad)"/>
  <rect x="6" y="36" width="8" height="6" fill="url(#grad)"/>

  <!-- Big chip pins (right) -->
  <rect x="50" y="22" width="8" height="6" fill="url(#grad)"/>
  <rect x="50" y="36" width="8" height="6" fill="url(#grad)"/>

  <!-- Big chip pins (top) -->
  <rect x="22" y="6" width="6" height="8" fill="url(#grad)"/>
  <rect x="36" y="6" width="6" height="8" fill="url(#grad)"/>

  <!-- Big chip pins (bottom) -->
  <rect x="22" y="50" width="6" height="8" fill="url(#grad)"/>
  <rect x="36" y="50" width="6" height="8" fill="url(#grad)"/>

  <!-- Simple bold circuit pattern inside -->
  <circle cx="32" cy="32" r="6" fill="#fff"/>
  <rect x="28" y="24" width="8" height="3" fill="#fff"/>
  <rect x="28" y="37" width="8" height="3" fill="#fff"/>
  <rect x="24" y="28" width="3" height="8" fill="#fff"/>
  <rect x="37" y="28" width="3" height="8" fill="#fff"/>
</svg>
