<svg xmlns="http://www.w3.org/2000/svg" viewBox="0 0 64 64">
  <defs>
    <linearGradient id="grad4" x1="0%" y1="0%" x2="100%" y2="100%">
      <stop offset="0%" style="stop-color:#6366f1;stop-opacity:1" />
      <stop offset="100%" style="stop-color:#8b5cf6;stop-opacity:1" />
    </linearGradient>
  </defs>

  <!-- Chip body -->
  <rect x="18" y="18" width="28" height="28" rx="2" fill="url(#grad4)"/>

  <!-- Chip pins (left) -->
  <rect x="10" y="24" width="8" height="3" fill="url(#grad4)"/>
  <rect x="10" y="30" width="8" height="3" fill="url(#grad4)"/>
  <rect x="10" y="36" width="8" height="3" fill="url(#grad4)"/>

  <!-- Chip pins (right) -->
  <rect x="46" y="24" width="8" height="3" fill="url(#grad4)"/>
  <rect x="46" y="30" width="8" height="3" fill="url(#grad4)"/>
  <rect x="46" y="36" width="8" height="3" fill="url(#grad4)"/>

  <!-- Chip pins (top) -->
  <rect x="24" y="10" width="3" height="8" fill="url(#grad4)"/>
  <rect x="30" y="10" width="3" height="8" fill="url(#grad4)"/>
  <rect x="36" y="10" width="3" height="8" fill="url(#grad4)"/>

  <!-- Chip pins (bottom) -->
  <rect x="24" y="46" width="3" height="8" fill="url(#grad4)"/>
  <rect x="30" y="46" width="3" height="8" fill="url(#grad4)"/>
  <rect x="36" y="46" width="3" height="8" fill="url(#grad4)"/>

  <!-- Circuit pattern inside -->
  <circle cx="26" cy="26" r="2" fill="#fff"/>
  <circle cx="38" cy="26" r="2" fill="#fff"/>
  <circle cx="26" cy="38" r="2" fill="#fff"/>
  <circle cx="38" cy="38" r="2" fill="#fff"/>
  <circle cx="32" cy="32" r="3" fill="#fff"/>

  <line x1="26" y1="26" x2="32" y2="32" stroke="#fff" stroke-width="1.5"/>
  <line x1="38" y1="26" x2="32" y2="32" stroke="#fff" stroke-width="1.5"/>
  <line x1="26" y1="38" x2="32" y2="32" stroke="#fff" stroke-width="1.5"/>
  <line x1="38" y1="38" x2="32" y2="32" stroke="#fff" stroke-width="1.5"/>
</svg>
